# xmcd
#
# Track frame offsets:
#	150
#	12534
#	28746
#	44990
#	60772
#	79089
#	88154
#	108176
#	120691
#	132218
#	144787
#	159603
#	171635
#	187317
#	200204
#	211834
#	224423
#	236140
#	252239
#	263153
#	275043
#	289417
#	303307
#	315757
#
# Disc length: 4364 seconds
#
# Revision: 0
# Processed by: cddbd v1.4PL0 Copyright (c) Steve Scherf et al.
# Submitted via: EasyCDDAExtractor 4.5.0.1
#
DISCID=73110a18
DTITLE=Various Artist - Seitsmekümnendad
DYEAR=1970
DGENRE=country
TTITLE0=Jaak Joala and Radar - Valge aurik
TTITLE1=Palderjan - Honoluulu öö
TTITLE2=Anne Veski and Vitamiin - Roosiaia kuninganna
TTITLE3=Tarmo Pihlap and Palderjan - Alice
TTITLE4=Jaak Joala and Radar - Besame mucho
TTITLE5=Oleg Melnik - Ra-ta-taa
TTITLE6=K Rosenberg,A.Tammeson and Nemo - Petlik õnn
TTITLE7=Ardo Juhkov and Admiral - Maria
TTITLE8=Jaak Jürisson and Toomapojad - Amarillo
TTITLE9=Marju Kuut and Tarmo Pihlap - Ring ring
TTITLE10=Reet Linna and Lagle Alpius - Siis kui algab kõik
TTITLE11=Jaak Joala - Suveaeg
TTITLE12=Raul Sepper and Vitamiin - Linda,Linda
TTITLE13=Nikolai Samohvalov - Mary-Helain
TTITLE14=Jaak Joala - Suvi
TTITLE15=Tiiu Varik - Roosiaed
TTITLE16=Heidy Tamme - Õnne tipul
TTITLE17=Marju Kuut - Tundeist sünnivad laulud
TTITLE18=Ivo.Linna and Reet Linna - Sinu valinud ma
TTITLE19=Marika Alamets and Toomapojad - Suvetiir
TTITLE20=Marju Kuut,Lagle Alpius,Reet Linna - Chirpy chirpy
TTITLE21=Olga Nool-Pirita - Andesta
TTITLE22=Boris Lehtlaan - Las jääda kõik mis hea
TTITLE23=Ivo Linna - Kevadelaul
EXTD=
EXTT0=
EXTT1=
EXTT2=
EXTT3=
EXTT4=
EXTT5=
EXTT6=
EXTT7=
EXTT8=
EXTT9=
EXTT10=
EXTT11=
EXTT12=
EXTT13=
EXTT14=
EXTT15=
EXTT16=
EXTT17=
EXTT18=
EXTT19=
EXTT20=
EXTT21=
EXTT22=
EXTT23=
PLAYORDER=
